# xmcd
#
# Track frame offsets:
# 150
# 10125
# 20394
# 35392
# 47245
# 57750
# 67862
# 78770
# 94805
# 111822
# 127435
# 138095
# 149892
# 158530
#
# Disc length: 2300 seconds
#
#
# Revision: 4
# Processed by: cddbd v1.5.1PL0 Copyright (c) Steve Scherf et al.
# Submitted via: FreeRIP 2.942 
#
DISCID=b708fa0e
DTITLE=BILL HALEY - 
DYEAR=1900
DGENRE=Rock and Roll
TTITLE0=Rock Around The Clock
TTITLE1=See You Later, Alligator
TTITLE2=Shake, Rattle And Roll
TTITLE3=Skinny Minnie
TTITLE4=High Heel Sneakers
TTITLE5=Hambone
TTITLE6=Harlem Nocturne
TTITLE7=Down By The Riverside
TTITLE8=One Two Three
TTITLE9=Marie
TTITLE10=Mohair Sam
TTITLE11=New Orleans
TTITLE12=No Matter What Shape
TTITLE13=Land Of A 1000 Dances
EXTD=
EXTT0=
EXTT1=
EXTT2=
EXTT3=
EXTT4=
EXTT5=
EXTT6=
EXTT7=
EXTT8=
EXTT9=
EXTT10=
EXTT11=
EXTT12=
EXTT13=
PLAYORDER=
